<?xml version="1.0" encoding="utf-8"?>
<!-- Generator: Adobe Illustrator 24.0.1, SVG Export Plug-In . SVG Version: 6.00 Build 0)  -->
<svg version="1.1" id="Layer_1" xmlns="http://www.w3.org/2000/svg" xmlns:xlink="http://www.w3.org/1999/xlink" x="0px" y="0px" width="24px" height="24px"
	 viewBox="0 0 24 24" style="enable-background:new 0 0 24 24;" xml:space="preserve">
	<g>
		<g>
			<path d="M12,12c-2.5,0-4-1.5-4-4c0-2.39,1.61-4,4-4s4,1.61,4,4C16,10.5,14.5,12,12,12z M12,6c-0.6,0-2,0.19-2,2
				c0,1.42,0.58,2,2,2s2-0.58,2-2C14,6.19,12.6,6,12,6z"/>
		</g>
		<g>
			<path d="M18,20H6c-0.55,0-1-0.45-1-1c0-4.21,2.09-6,7-6s7,1.79,7,6C19,19.55,18.55,20,18,20z M7.04,18h9.92
				c-0.17-1.76-1.04-3-4.96-3S7.21,16.24,7.04,18z"/>
		</g>
		<rect fill="none" width="24" height="24"/>
	</g>
</svg>
